<?xml version="1.0" standalone="no"?>
<!DOCTYPE svg PUBLIC "-//W3C//DTD SVG 20010904//EN"
 "http://www.w3.org/TR/2001/REC-SVG-20010904/DTD/svg10.dtd">
<svg version="1.0" xmlns="http://www.w3.org/2000/svg"
 width="114.000000pt" height="114.000000pt" viewBox="0 0 114.000000 114.000000"
 preserveAspectRatio="xMidYMid meet">
<metadata>
Created by potrace 1.11, written by Peter Selinger 2001-2013
</metadata>
<g transform="translate(0.000000,114.000000) scale(0.100000,-0.100000)"
fill="#000000" stroke="none">
<path d="M451 964 c-245 -66 -381 -326 -290 -556 47 -119 143 -211 261 -249
57 -18 84 -21 156 -17 74 4 97 10 158 41 84 42 157 117 199 204 27 53 29 68
30 168 0 104 -2 114 -32 178 -87 183 -293 282 -482 231z m251 -56 c164 -76
256 -261 213 -430 -22 -84 -44 -124 -99 -180 -110 -114 -282 -145 -431 -79
-66 29 -141 105 -177 179 -31 62 -33 74 -33 167 1 90 3 105 29 155 40 76 64
107 116 145 108 79 264 97 382 43z"/>
<path d="M392 694 c-73 -51 -68 -200 8 -239 21 -11 44 -15 65 -11 58 11 105
87 58 94 -15 2 -23 -2 -23 -11 0 -18 -32 -47 -53 -47 -34 0 -57 37 -57 93 0
65 20 97 61 97 22 0 32 -7 41 -25 7 -16 19 -25 34 -25 21 0 22 2 12 30 -5 17
-20 37 -31 45 -28 20 -87 19 -115 -1z"/>
<path d="M580 580 l0 -130 68 0 c59 0 72 3 90 23 26 27 28 64 7 94 -10 14 -12
24 -5 28 12 7 13 65 2 81 -14 22 -52 34 -106 34 l-56 0 0 -130z m121 74 c20
-24 -1 -48 -45 -52 -35 -3 -36 -2 -36 32 0 34 2 36 34 36 18 0 39 -7 47 -16z
m7 -123 c5 -32 -19 -49 -58 -43 -27 4 -30 8 -30 39 0 34 0 34 43 31 36 -3 42
-6 45 -27z"/>
<path d="M568 43 c7 -3 16 -2 19 1 4 3 -2 6 -13 5 -11 0 -14 -3 -6 -6z"/>
</g>
</svg>
